ply
format ascii 1.0
comment Created by Blender 2.68 (sub 0) - www.blender.org, source file: 'minescape_cart.blend'
element vertex 396
property float x
property float y
property float z
property float nx
property float ny
property float nz
element face 154
property list uchar uint vertex_indices
end_header
1.500000 2.000000 1.776814 1.000000 -0.000000 0.000000
1.500000 2.000000 2.243787 1.000000 -0.000000 0.000000
1.500000 -2.000000 2.243787 1.000000 -0.000000 0.000000
1.500000 0.666667 1.776814 1.000000 0.000000 0.000000
1.500000 2.000000 0.243787 1.000000 -0.000000 0.000000
1.500000 2.000000 1.617334 1.000000 -0.000000 0.000000
1.500000 0.666667 1.617334 1.000000 -0.000000 0.000000
1.500000 -2.000000 0.243787 1.000000 0.000000 0.000000
1.500000 -0.666667 1.776814 1.000000 0.000000 0.000000
1.500000 -0.666667 1.617334 1.000000 0.000000 -0.000000
1.500000 -2.000000 2.243787 0.000000 0.000000 0.000000
1.500000 -2.000000 1.776814 0.000000 0.000000 0.000000
1.500000 -2.000000 0.243787 0.000000 0.000000 0.000000
1.500000 -2.000000 1.617334 0.000000 0.000000 0.000000
-1.500000 -2.000000 0.243787 -0.000000 0.000000 -1.000000
-1.500000 2.000000 0.243787 -0.000000 0.000000 -1.000000
1.500000 2.000000 0.243787 -0.000000 0.000000 -1.000000
1.500000 -2.000000 0.243787 -0.000000 0.000000 -1.000000
1.350000 -1.800000 2.243787 -1.000000 0.000000 0.000000
1.350000 1.800000 2.243787 -1.000000 0.000000 0.000000
1.350000 1.800000 0.443787 -1.000000 0.000000 0.000000
1.350000 -1.800000 0.443787 -1.000000 0.000000 0.000000
-1.350000 -1.800000 2.243787 -0.000000 0.000000 1.000000
-1.350000 1.800000 2.243787 -0.000000 0.000000 1.000000
-1.500000 2.000000 2.243787 -0.000000 0.000000 1.000000
-1.500000 -2.000000 2.243787 -0.000000 0.000000 1.000000
1.350000 1.800000 2.243787 0.000000 0.000000 1.000000
1.500000 2.000000 2.243787 0.000000 0.000000 1.000000
1.350000 -1.800000 2.243787 0.000000 0.000000 1.000000
1.500000 -2.000000 2.243787 0.000000 0.000000 1.000000
1.350000 -1.800000 0.443787 -0.000000 0.000000 1.000000
1.350000 1.800000 0.443787 -0.000000 0.000000 1.000000
-1.350000 1.800000 0.443787 -0.000000 0.000000 1.000000
-1.350000 -1.800000 0.443787 -0.000000 0.000000 1.000000
-1.350000 -1.800000 2.243787 0.000000 1.000000 -0.000000
1.350000 -1.800000 2.243787 0.000000 1.000000 -0.000000
1.350000 -1.800000 0.443787 0.000000 1.000000 -0.000000
-1.350000 -1.800000 0.443787 0.000000 1.000000 -0.000000
-1.350000 1.800000 2.243787 1.000000 0.000000 -0.000000
-1.350000 -1.800000 2.243787 1.000000 0.000000 -0.000000
-1.350000 -1.800000 0.443787 1.000000 0.000000 -0.000000
-1.350000 1.800000 0.443787 1.000000 0.000000 -0.000000
1.350000 1.800000 2.243787 0.000000 -1.000000 0.000000
-1.350000 1.800000 2.243787 0.000000 -1.000000 0.000000
-1.350000 1.800000 0.443787 0.000000 -1.000000 0.000000
1.350000 1.800000 0.443787 0.000000 -1.000000 0.000000
-1.500000 2.000000 0.243787 -1.000000 0.000000 -0.000000
-1.500000 -2.000000 0.243787 -1.000000 0.000000 -0.000000
-1.500000 2.000000 1.617334 -1.000000 0.000000 -0.000000
-1.500000 0.666667 1.617334 -1.000000 0.000000 -0.000000
-1.500000 2.000000 2.243787 -1.000000 0.000000 0.000000
-1.500000 2.000000 1.776814 -1.000000 0.000000 0.000000
-1.500000 0.666667 1.776814 -1.000000 0.000000 0.000000
-1.500000 -2.000000 2.243787 -1.000000 0.000000 0.000000
-1.500000 -0.666667 1.617334 -1.000000 0.000000 -0.000000
-1.500000 -0.666667 1.776814 -1.000000 -0.000000 -0.000000
-1.500000 -2.000000 0.243787 0.000000 0.000000 0.000000
-1.500000 -2.000000 1.617334 0.000000 0.000000 0.000000
-1.500000 -2.000000 2.243787 0.000000 0.000000 0.000000
-1.500000 -2.000000 1.776814 0.000000 0.000000 0.000000
1.500000 2.000000 0.243787 -0.000000 1.000000 0.000000
-1.500000 2.000000 0.243787 -0.000000 1.000000 0.000000
-1.500000 2.000000 1.617334 -0.000000 1.000000 0.000000
-0.500000 2.000000 1.217334 0.000000 1.000000 0.000000
0.500000 2.000000 1.217334 0.000000 1.000000 0.000000
1.500000 2.000000 1.617334 -0.000000 1.000000 0.000000
-2.000000 -0.666667 1.776814 -1.000000 0.000000 0.000000
-2.000000 0.666667 1.776814 -1.000000 0.000000 0.000000
-2.000000 0.666667 1.617334 -1.000000 0.000000 0.000000
-2.000000 -0.666667 1.617334 -1.000000 0.000000 0.000000
-1.500000 0.666667 1.776814 -0.000000 1.000000 0.000000
-1.500000 0.666667 1.617334 -0.000000 1.000000 0.000000
-2.000000 0.666667 1.617334 -0.000000 1.000000 0.000000
-2.000000 0.666667 1.776814 -0.000000 1.000000 0.000000
-1.500000 -0.666667 1.617334 0.000000 -1.000000 0.000000
-1.500000 -0.666667 1.776814 0.000000 -1.000000 0.000000
-2.000000 -0.666667 1.776814 0.000000 -1.000000 0.000000
-2.000000 -0.666667 1.617334 0.000000 -1.000000 0.000000
1.895000 0.526667 1.617334 0.000000 -1.000000 0.000000
1.895000 0.526667 1.776814 0.000000 -1.000000 0.000000
1.605000 0.526667 1.776814 0.000000 -1.000000 0.000000
1.605000 0.526667 1.617334 0.000000 -1.000000 0.000000
2.000000 0.666667 1.776814 1.000000 0.000000 -0.000000
2.000000 -0.666667 1.776814 1.000000 0.000000 -0.000000
2.000000 -0.666667 1.617334 1.000000 0.000000 -0.000000
2.000000 0.666667 1.617334 1.000000 0.000000 -0.000000
1.500000 -0.666667 1.776814 -0.000000 -1.000000 0.000000
1.500000 -0.666667 1.617334 -0.000000 -1.000000 0.000000
2.000000 -0.666667 1.617334 -0.000000 -1.000000 0.000000
2.000000 -0.666667 1.776814 -0.000000 -1.000000 0.000000
1.500000 0.666667 1.617334 0.000000 1.000000 0.000000
1.500000 0.666667 1.776814 0.000000 1.000000 0.000000
2.000000 0.666667 1.776814 0.000000 1.000000 0.000000
2.000000 0.666667 1.617334 0.000000 1.000000 0.000000
1.605000 0.526667 1.617334 1.000000 -0.000000 0.000000
1.605000 0.526667 1.776814 1.000000 -0.000000 0.000000
1.605000 -0.526667 1.776814 1.000000 -0.000000 0.000000
1.605000 -0.526667 1.617334 1.000000 -0.000000 0.000000
-1.605000 0.526667 1.776814 0.000000 0.000000 1.000000
-1.605000 -0.526667 1.776814 0.000000 0.000000 1.000000
-1.500000 -0.666667 1.776814 0.000000 0.000000 1.000000
-1.500000 0.666667 1.776814 0.000000 0.000000 1.000000
-1.895000 -0.526667 1.776814 -0.000000 0.000000 1.000000
-1.895000 0.526667 1.776814 -0.000000 0.000000 1.000000
-2.000000 0.666667 1.776814 -0.000000 0.000000 1.000000
-2.000000 -0.666667 1.776814 -0.000000 0.000000 1.000000
-1.605000 -0.526667 1.617334 -0.000000 0.000000 -1.000000
-1.605000 0.526667 1.617334 -0.000000 0.000000 -1.000000
-1.500000 0.666667 1.617334 -0.000000 0.000000 -1.000000
-1.500000 -0.666667 1.617334 -0.000000 0.000000 -1.000000
-1.895000 0.526667 1.617334 0.000000 0.000000 -1.000000
-1.895000 -0.526667 1.617334 0.000000 0.000000 -1.000000
-2.000000 -0.666667 1.617334 0.000000 0.000000 -1.000000
-2.000000 0.666667 1.617334 0.000000 0.000000 -1.000000
-1.895000 0.526667 1.776814 -0.000000 -1.000000 0.000000
-1.895000 0.526667 1.617334 -0.000000 -1.000000 0.000000
-1.605000 0.526667 1.617334 -0.000000 -1.000000 0.000000
-1.605000 0.526667 1.776814 -0.000000 -1.000000 0.000000
-1.605000 -0.526667 1.617334 -1.000000 -0.000000 0.000000
-1.605000 -0.526667 1.776814 -1.000000 -0.000000 0.000000
-1.605000 0.526667 1.776814 -1.000000 -0.000000 0.000000
-1.605000 0.526667 1.617334 -1.000000 -0.000000 0.000000
-1.895000 -0.526667 1.617334 0.000000 1.000000 0.000000
-1.895000 -0.526667 1.776814 0.000000 1.000000 0.000000
-1.605000 -0.526667 1.776814 0.000000 1.000000 0.000000
-1.605000 -0.526667 1.617334 0.000000 1.000000 0.000000
-1.895000 -0.526667 1.776814 1.000000 0.000000 0.000000
-1.895000 -0.526667 1.617334 1.000000 0.000000 0.000000
-1.895000 0.526667 1.617334 1.000000 0.000000 0.000000
-1.895000 0.526667 1.776814 1.000000 0.000000 0.000000
1.605000 -0.526667 1.776814 -0.000000 0.000000 1.000000
1.605000 0.526667 1.776814 -0.000000 0.000000 1.000000
1.500000 0.666667 1.776814 -0.000000 0.000000 1.000000
1.500000 -0.666667 1.776814 -0.000000 0.000000 1.000000
1.895000 0.526667 1.776814 0.000000 0.000000 1.000000
1.895000 -0.526667 1.776814 0.000000 0.000000 1.000000
2.000000 -0.666667 1.776814 0.000000 0.000000 1.000000
2.000000 0.666667 1.776814 0.000000 0.000000 1.000000
1.605000 0.526667 1.617334 0.000000 0.000000 -1.000000
1.605000 -0.526667 1.617334 0.000000 0.000000 -1.000000
1.500000 -0.666667 1.617334 0.000000 0.000000 -1.000000
1.500000 0.666667 1.617334 0.000000 0.000000 -1.000000
1.895000 -0.526667 1.617334 -0.000000 0.000000 -1.000000
1.895000 0.526667 1.617334 -0.000000 0.000000 -1.000000
2.000000 0.666667 1.617334 -0.000000 0.000000 -1.000000
2.000000 -0.666667 1.617334 -0.000000 0.000000 -1.000000
1.895000 0.526667 1.776814 -1.000000 0.000000 0.000000
1.895000 0.526667 1.617334 -1.000000 0.000000 0.000000
1.895000 -0.526667 1.617334 -1.000000 0.000000 0.000000
1.895000 -0.526667 1.776814 -1.000000 0.000000 0.000000
1.605000 -0.526667 1.617334 0.000000 1.000000 0.000000
1.605000 -0.526667 1.776814 0.000000 1.000000 0.000000
1.895000 -0.526667 1.776814 0.000000 1.000000 0.000000
1.895000 -0.526667 1.617334 0.000000 1.000000 0.000000
-0.500000 2.000000 1.976814 -0.000000 1.000000 0.000000
0.500000 2.000000 1.976814 -0.000000 1.000000 0.000000
-1.500000 2.000000 1.776814 -0.000000 1.000000 0.000000
1.500000 2.000000 1.776814 -0.000000 1.000000 0.000000
-1.500000 2.000000 2.243787 -0.000000 1.000000 0.000000
1.500000 2.000000 2.243787 -0.000000 1.000000 0.000000
0.500000 2.000000 1.217334 0.000000 -0.000000 1.000000
-0.500000 2.000000 1.217334 0.000000 -0.000000 1.000000
-0.500000 1.994070 1.217334 0.000000 -0.000000 1.000000
0.500000 1.994070 1.217334 0.000000 -0.000000 1.000000
0.500000 2.000000 1.976814 -1.000000 0.000000 0.000000
0.500000 2.000000 1.217334 -1.000000 0.000000 0.000000
0.500000 1.994070 1.217334 -1.000000 0.000000 0.000000
0.500000 1.994070 1.976814 -1.000000 0.000000 0.000000
-0.500000 2.000000 1.217334 1.000000 -0.000000 0.000000
-0.500000 2.000000 1.976814 1.000000 -0.000000 0.000000
-0.500000 1.994070 1.976814 1.000000 -0.000000 0.000000
-0.500000 1.994070 1.217334 1.000000 -0.000000 0.000000
-0.500000 1.994070 1.976814 0.000000 0.181339 -0.983421
0.500000 1.994070 1.976814 0.000000 0.181339 -0.983421
0.488310 1.951804 1.969020 0.000000 0.181339 -0.983421
-0.488310 1.951804 1.969020 0.000000 0.181339 -0.983421
-0.488310 1.951804 1.969020 0.000000 0.301377 -0.953505
0.488310 1.951804 1.969020 0.000000 0.301377 -0.953505
0.470233 1.913675 1.956969 0.000000 0.301377 -0.953505
-0.470233 1.913675 1.956969 0.000000 0.301377 -0.953505
-0.470233 1.913675 1.956969 0.000000 0.447212 -0.894428
0.470233 1.913675 1.956969 0.000000 0.447212 -0.894428
0.447538 1.883416 1.941839 0.000000 0.447212 -0.894428
-0.447538 1.883416 1.941839 0.000000 0.447212 -0.894428
-0.447538 1.883416 1.941839 0.000000 0.652466 -0.757818
0.447538 1.883416 1.941839 0.000000 0.652466 -0.757818
0.422449 1.863989 1.925112 0.000000 0.652466 -0.757818
-0.422449 1.863989 1.925112 0.000000 0.652466 -0.757818
-0.422449 1.863989 1.925112 0.000000 0.928100 -0.372331
0.422449 1.863989 1.925112 0.000000 0.928100 -0.372331
0.397419 1.857295 1.908426 0.000000 0.928100 -0.372331
-0.397419 1.857295 1.908426 0.000000 0.928100 -0.372331
-0.397419 1.857295 1.285722 0.000000 0.928100 0.372331
0.397419 1.857295 1.285722 0.000000 0.928100 0.372331
0.422449 1.863989 1.269035 0.000000 0.928100 0.372331
-0.422449 1.863989 1.269035 0.000000 0.928100 0.372331
-0.422449 1.863989 1.269035 0.000000 0.652466 0.757818
0.422449 1.863989 1.269035 0.000000 0.652466 0.757818
0.447538 1.883416 1.252308 0.000000 0.652466 0.757818
-0.447538 1.883416 1.252308 0.000000 0.652466 0.757818
-0.447538 1.883416 1.252308 0.000000 0.447212 0.894428
0.447538 1.883416 1.252308 0.000000 0.447212 0.894428
0.470233 1.913675 1.237179 0.000000 0.447212 0.894428
-0.470233 1.913675 1.237179 0.000000 0.447212 0.894428
-0.470233 1.913675 1.237179 0.000000 0.301377 0.953505
0.470233 1.913675 1.237179 0.000000 0.301377 0.953505
0.488310 1.951804 1.225128 0.000000 0.301377 0.953505
-0.488310 1.951804 1.225128 0.000000 0.301377 0.953505
-0.488310 1.951804 1.225128 0.000000 0.181337 0.983421
0.488310 1.951804 1.225128 0.000000 0.181337 0.983421
0.500000 1.994070 1.217334 0.000000 0.181337 0.983421
-0.500000 1.994070 1.217334 0.000000 0.181337 0.983421
-0.500000 1.994070 1.217334 0.963812 0.266582 0.000000
-0.500000 1.994070 1.976814 0.963812 0.266582 0.000000
-0.488310 1.951804 1.969020 0.963812 0.266582 0.000000
-0.488310 1.951804 1.225128 0.963812 0.266582 0.000000
-0.488310 1.951804 1.225128 0.903589 0.428400 0.000000
-0.488310 1.951804 1.969020 0.903589 0.428400 0.000000
-0.470233 1.913675 1.956969 0.903589 0.428400 0.000000
-0.470233 1.913675 1.237179 0.903589 0.428400 0.000000
-0.470233 1.913675 1.237179 0.800001 0.599998 0.000000
-0.470233 1.913675 1.956969 0.800001 0.599998 0.000000
-0.447538 1.883416 1.941839 0.800001 0.599998 0.000000
-0.447538 1.883416 1.252308 0.800001 0.599998 0.000000
-0.447538 1.883416 1.252308 0.612232 0.790678 0.000000
-0.447538 1.883416 1.941839 0.612232 0.790678 0.000000
-0.422449 1.863989 1.925112 0.612232 0.790678 0.000000
-0.422449 1.863989 1.269035 0.612232 0.790678 0.000000
-0.422449 1.863989 1.269035 0.258370 0.966046 0.000000
-0.422449 1.863989 1.925112 0.258370 0.966046 0.000000
-0.397419 1.857295 1.908426 0.258370 0.966046 0.000000
-0.397419 1.857295 1.285722 0.258370 0.966046 0.000000
0.397419 1.857295 1.285722 -0.258370 0.966046 0.000000
0.397419 1.857295 1.908426 -0.258370 0.966046 0.000000
0.422449 1.863989 1.925112 -0.258370 0.966046 0.000000
0.422449 1.863989 1.269035 -0.258370 0.966046 0.000000
0.422449 1.863989 1.269035 -0.612232 0.790678 0.000000
0.422449 1.863989 1.925112 -0.612232 0.790678 0.000000
0.447538 1.883416 1.941839 -0.612232 0.790678 0.000000
0.447538 1.883416 1.252308 -0.612232 0.790678 0.000000
0.447538 1.883416 1.252308 -0.800001 0.599998 0.000000
0.447538 1.883416 1.941839 -0.800001 0.599998 0.000000
0.470233 1.913675 1.956969 -0.800001 0.599998 0.000000
0.470233 1.913675 1.237179 -0.800001 0.599998 0.000000
0.470233 1.913675 1.237179 -0.903589 0.428400 0.000000
0.470233 1.913675 1.956969 -0.903589 0.428400 0.000000
0.488310 1.951804 1.969020 -0.903589 0.428400 0.000000
0.488310 1.951804 1.225128 -0.903589 0.428400 0.000000
0.488310 1.951804 1.225128 -0.963812 0.266582 0.000000
0.488310 1.951804 1.969020 -0.963812 0.266582 0.000000
0.500000 1.994070 1.976814 -0.963812 0.266582 0.000000
0.500000 1.994070 1.217334 -0.963812 0.266582 0.000000
-0.500000 2.000000 1.976814 0.000000 0.000000 -1.000000
0.500000 2.000000 1.976814 0.000000 0.000000 -1.000000
0.500000 1.994070 1.976814 0.000000 0.000000 -1.000000
-0.500000 1.994070 1.976814 0.000000 0.000000 -1.000000
0.167026 1.857295 1.754831 0.000000 1.000000 0.000000
-0.167026 1.857295 1.754831 0.000000 1.000000 0.000000
-0.397419 1.857295 1.908426 0.000000 1.000000 0.000000
0.397419 1.857295 1.908426 0.000000 1.000000 0.000000
-0.167026 1.857295 1.439317 0.000000 1.000000 -0.000000
0.167026 1.857295 1.439317 0.000000 1.000000 -0.000000
0.397419 1.857295 1.285722 0.000000 1.000000 -0.000000
-0.397419 1.857295 1.285722 0.000000 1.000000 -0.000000
0.152026 1.857295 1.744831 -0.800000 -0.600000 0.000000
0.152026 1.857295 1.449317 -0.800000 -0.600000 0.000000
0.167026 1.837295 1.439317 -0.800000 -0.600000 0.000000
0.167026 1.837295 1.754831 -0.800000 -0.600000 0.000000
0.152026 1.857295 1.449317 -0.800000 0.600000 0.000000
0.152026 1.857295 1.744831 -0.800000 0.600000 0.000000
0.167026 1.877295 1.754831 -0.800000 0.600000 0.000000
0.167026 1.877295 1.439317 -0.800000 0.600000 0.000000
0.182026 1.857295 1.429317 0.800000 -0.600000 0.000000
0.182026 1.857295 1.764831 0.800000 -0.600000 0.000000
0.167026 1.837295 1.754831 0.800000 -0.600000 0.000000
0.167026 1.837295 1.439317 0.800000 -0.600000 0.000000
0.182026 1.857295 1.764831 0.800000 0.600000 0.000000
0.182026 1.857295 1.429317 0.800000 0.600000 0.000000
0.167026 1.877295 1.439317 0.800000 0.600000 0.000000
0.167026 1.877295 1.754831 0.800000 0.600000 0.000000
0.152026 1.857295 1.449317 0.000000 -0.447218 0.894425
-0.152026 1.857295 1.449317 0.000000 -0.447218 0.894425
-0.167026 1.837295 1.439317 0.000000 -0.447218 0.894425
0.167026 1.837295 1.439317 0.000000 -0.447218 0.894425
-0.152026 1.857295 1.449317 0.000000 0.447218 0.894425
0.152026 1.857295 1.449317 0.000000 0.447218 0.894425
0.167026 1.877295 1.439317 0.000000 0.447218 0.894425
-0.167026 1.877295 1.439317 0.000000 0.447218 0.894425
-0.182026 1.857295 1.429317 0.000000 -0.447214 -0.894427
0.182026 1.857295 1.429317 0.000000 -0.447214 -0.894427
0.167026 1.837295 1.439317 0.000000 -0.447214 -0.894427
-0.167026 1.837295 1.439317 0.000000 -0.447214 -0.894427
0.182026 1.857295 1.429317 0.000000 0.447214 -0.894427
-0.182026 1.857295 1.429317 0.000000 0.447214 -0.894427
-0.167026 1.877295 1.439317 0.000000 0.447214 -0.894427
0.167026 1.877295 1.439317 0.000000 0.447214 -0.894427
-0.152026 1.857295 1.449317 0.800000 -0.600000 0.000000
-0.152026 1.857295 1.744831 0.800000 -0.600000 0.000000
-0.167026 1.837295 1.754831 0.800000 -0.600000 0.000000
-0.167026 1.837295 1.439317 0.800000 -0.600000 0.000000
-0.152026 1.857295 1.744831 0.800000 0.600000 0.000000
-0.152026 1.857295 1.449317 0.800000 0.600000 0.000000
-0.167026 1.877295 1.439317 0.800000 0.600000 0.000000
-0.167026 1.877295 1.754831 0.800000 0.600000 0.000000
-0.182026 1.857295 1.764831 -0.800000 -0.600000 0.000000
-0.182026 1.857295 1.429317 -0.800000 -0.600000 0.000000
-0.167026 1.837295 1.439317 -0.800000 -0.600000 0.000000
-0.167026 1.837295 1.754831 -0.800000 -0.600000 0.000000
-0.182026 1.857295 1.429317 -0.800000 0.600000 0.000000
-0.182026 1.857295 1.764831 -0.800000 0.600000 0.000000
-0.167026 1.877295 1.754831 -0.800000 0.600000 0.000000
-0.167026 1.877295 1.439317 -0.800000 0.600000 0.000000
-0.152026 1.857295 1.744831 0.000000 -0.447214 -0.894427
0.152026 1.857295 1.744831 0.000000 -0.447214 -0.894427
0.167026 1.837295 1.754831 0.000000 -0.447214 -0.894427
-0.167026 1.837295 1.754831 0.000000 -0.447214 -0.894427
0.152026 1.857295 1.744831 0.000000 0.447214 -0.894427
-0.152026 1.857295 1.744831 0.000000 0.447214 -0.894427
-0.167026 1.877295 1.754831 0.000000 0.447214 -0.894427
0.167026 1.877295 1.754831 0.000000 0.447214 -0.894427
0.182026 1.857295 1.764831 0.000000 -0.447214 0.894427
-0.182026 1.857295 1.764831 0.000000 -0.447214 0.894427
-0.167026 1.837295 1.754831 0.000000 -0.447214 0.894427
0.167026 1.837295 1.754831 0.000000 -0.447214 0.894427
-0.182026 1.857295 1.764831 0.000000 0.447214 0.894427
0.182026 1.857295 1.764831 0.000000 0.447214 0.894427
0.167026 1.877295 1.754831 0.000000 0.447214 0.894427
-0.167026 1.877295 1.754831 0.000000 0.447214 0.894427
-0.900000 -2.000000 2.126813 -1.000000 0.000000 0.000000
-0.900000 -2.000000 0.617337 -1.000000 0.000000 0.000000
-0.900000 -2.118452 0.617337 -1.000000 0.000000 0.000000
-0.900000 -2.118452 2.126813 -1.000000 0.000000 0.000000
-1.500000 -2.000000 2.243787 -0.000000 -1.000000 0.000000
-1.500000 -2.000000 1.776814 -0.000000 -1.000000 0.000000
-0.900000 -2.000000 2.126813 -0.000000 -1.000000 0.000000
1.500000 -2.000000 2.243787 0.000000 -1.000000 0.000000
0.900000 -2.000000 2.126813 0.000000 -1.000000 -0.000000
1.500000 -2.000000 1.776814 -0.000000 -1.000000 -0.000000
0.000000 -2.000000 1.476814 0.000000 -1.000000 -0.000000
-0.900000 -2.000000 0.617337 -0.000000 -1.000000 -0.000000
0.900000 -2.000000 0.617334 0.000000 -1.000000 0.000000
-1.500000 -2.000000 1.617334 0.000000 -1.000000 0.000000
1.500000 -2.000000 1.617334 0.000000 -1.000000 0.000000
-1.500000 -2.000000 0.243787 -0.000000 -1.000000 0.000000
1.500000 -2.000000 0.243787 0.000000 -1.000000 0.000000
0.000000 -2.000000 0.982746 0.000000 -1.000000 0.000000
-0.600000 -2.000000 1.317334 0.000000 -1.000000 0.000000
-0.600000 -2.000000 0.617337 0.000000 -1.000000 0.000000
0.600000 -2.000000 0.617337 0.000000 -1.000000 0.000000
0.600000 -2.000000 1.317334 0.000000 -1.000000 0.000000
-0.900000 -2.118452 2.126813 -0.000000 -1.000000 0.000000
-0.900000 -2.118452 0.617337 -0.000000 -1.000000 0.000000
-0.600000 -2.118452 1.317334 -0.000000 -1.000000 0.000000
0.000000 -2.118452 1.476814 -0.000000 -1.000000 0.000000
0.600000 -2.118452 1.317334 0.000000 -1.000000 -0.000000
0.900000 -2.118452 2.126813 0.000000 -1.000000 -0.000000
0.900000 -2.118452 0.617334 -0.000000 -1.000000 -0.000000
-0.600000 -2.118452 0.617337 -0.000000 -1.000000 -0.000000
0.000000 -2.118452 0.982746 -0.000000 -1.000000 0.000000
0.600000 -2.118452 0.617337 0.000000 -1.000000 0.000000
0.000000 -2.000000 1.476814 0.585490 0.000000 0.810679
-0.900000 -2.000000 2.126813 0.585490 0.000000 0.810679
-0.900000 -2.118452 2.126813 0.585490 0.000000 0.810679
0.000000 -2.118452 1.476814 0.585490 0.000000 0.810679
0.900000 -2.000000 0.617334 1.000000 -0.000000 0.000000
0.900000 -2.000000 2.126813 1.000000 -0.000000 0.000000
0.900000 -2.118452 2.126813 1.000000 -0.000000 0.000000
0.900000 -2.118452 0.617334 1.000000 -0.000000 0.000000
-0.600000 -2.000000 0.617337 1.000000 -0.000000 0.000000
-0.600000 -2.000000 1.317334 1.000000 -0.000000 0.000000
-0.600000 -2.118452 1.317334 1.000000 -0.000000 0.000000
-0.600000 -2.118452 0.617337 1.000000 -0.000000 0.000000
-0.900000 -2.000000 0.617337 0.000000 0.000000 -1.000000
-0.600000 -2.000000 0.617337 0.000000 0.000000 -1.000000
-0.600000 -2.118452 0.617337 0.000000 0.000000 -1.000000
-0.900000 -2.118452 0.617337 0.000000 0.000000 -1.000000
0.600000 -2.000000 0.617337 -0.000008 0.000000 -1.000000
0.900000 -2.000000 0.617334 -0.000008 0.000000 -1.000000
0.900000 -2.118452 0.617334 -0.000008 0.000000 -1.000000
0.600000 -2.118452 0.617337 -0.000008 0.000000 -1.000000
-0.600000 -2.000000 1.317334 -0.487038 0.000000 -0.873381
0.000000 -2.000000 0.982746 -0.487038 0.000000 -0.873381
0.000000 -2.118452 0.982746 -0.487038 0.000000 -0.873381
-0.600000 -2.118452 1.317334 -0.487038 0.000000 -0.873381
0.000000 -2.000000 0.982746 0.487038 0.000000 -0.873381
0.600000 -2.000000 1.317334 0.487038 0.000000 -0.873381
0.600000 -2.118452 1.317334 0.487038 0.000000 -0.873381
0.000000 -2.118452 0.982746 0.487038 0.000000 -0.873381
0.600000 -2.000000 1.317334 -1.000000 0.000000 0.000000
0.600000 -2.000000 0.617337 -1.000000 0.000000 0.000000
0.600000 -2.118452 0.617337 -1.000000 0.000000 0.000000
0.600000 -2.118452 1.317334 -1.000000 0.000000 0.000000
0.900000 -2.000000 2.126813 -0.585490 0.000000 0.810679
0.000000 -2.000000 1.476814 -0.585490 0.000000 0.810679
0.000000 -2.118452 1.476814 -0.585490 0.000000 0.810679
0.900000 -2.118452 2.126813 -0.585490 0.000000 0.810679
3 0 1 2
3 3 0 2
3 4 5 6
3 7 4 6
3 8 3 2
3 9 7 6
3 9 8 2
3 9 2 7
3 10 11 12
3 11 13 12
4 14 15 16 17
4 18 19 20 21
4 22 23 24 25
4 23 26 27 24
4 26 28 29 27
4 28 22 25 29
4 30 31 32 33
4 34 35 36 37
4 38 39 40 41
4 42 43 44 45
3 46 47 48
3 48 47 49
3 50 51 52
3 53 50 52
3 49 47 54
3 55 53 52
3 54 47 55
3 55 47 53
3 56 57 58
3 57 59 58
3 60 61 62
3 60 62 63
3 60 63 64
3 65 60 64
4 49 52 51 48
4 66 67 68 69
4 70 71 72 73
4 74 75 76 77
4 78 79 80 81
4 0 3 6 5
4 82 83 84 85
4 86 87 88 89
4 90 91 92 93
4 94 95 96 97
4 98 99 100 101
4 102 103 104 105
4 103 98 101 104
4 99 102 105 100
4 106 107 108 109
4 110 111 112 113
4 111 106 109 112
4 107 110 113 108
4 114 115 116 117
4 118 119 120 121
4 122 123 124 125
4 126 127 128 129
4 130 131 132 133
4 134 135 136 137
4 135 130 133 136
4 131 134 137 132
4 138 139 140 141
4 142 143 144 145
4 139 142 145 140
4 143 138 141 144
4 146 147 148 149
4 150 151 152 153
3 154 63 62
3 65 64 155
3 154 62 156
3 157 65 155
3 154 156 158
3 159 157 155
3 154 158 155
3 158 159 155
4 160 161 162 163
4 164 165 166 167
4 168 169 170 171
4 172 173 174 175
4 176 177 178 179
4 180 181 182 183
4 184 185 186 187
4 188 189 190 191
4 192 193 194 195
4 196 197 198 199
4 200 201 202 203
4 204 205 206 207
4 208 209 210 211
4 212 213 214 215
4 216 217 218 219
4 220 221 222 223
4 224 225 226 227
4 228 229 230 231
4 232 233 234 235
4 236 237 238 239
4 240 241 242 243
4 244 245 246 247
4 248 249 250 251
4 252 253 254 255
4 256 257 258 259
4 260 261 262 263
4 257 260 263 258
4 261 256 259 262
4 264 265 266 267
4 268 269 270 271
4 272 273 274 275
4 276 277 278 279
4 280 281 282 283
4 284 285 286 287
4 288 289 290 291
4 292 293 294 295
4 296 297 298 299
4 300 301 302 303
4 304 305 306 307
4 308 309 310 311
4 312 313 314 315
4 316 317 318 319
4 320 321 322 323
4 324 325 326 327
4 328 329 330 331
3 332 333 334
3 335 332 334
3 336 335 334
3 336 337 335
3 338 336 334
3 333 339 334
3 337 336 340
3 333 341 339
3 342 337 340
3 341 343 339
3 344 342 340
3 345 346 347
3 348 349 345
3 348 345 347
3 343 347 339
3 343 348 347
3 343 340 348
3 343 344 340
3 350 351 352
3 350 352 353
3 354 355 353
3 354 356 355
3 352 354 353
3 351 357 352
3 352 358 354
3 354 359 356
4 360 361 362 363
4 364 365 366 367
4 368 369 370 371
4 372 373 374 375
4 376 377 378 379
4 380 381 382 383
4 384 385 386 387
4 388 389 390 391
4 392 393 394 395
